#!OML:ASF H:\Terrain\Patient Classification 1\Walking\liu\liu.ASF
:FULLY-SPECIFIED
:DEGREES
146
root 17.250080 31.884199 -32.681000 12.667740 16.795321 7.548560
lowerback -13.404760 -6.660100 -8.961380
upperback -2.391740 -8.359240 4.339260
thorax 5.996480 -4.277600 8.732160
lowerneck -38.299198 -11.687660 -27.771000
upperneck 34.882801 -13.818480 25.891800
head 19.269119 -5.585280 11.754720
rclavicle 0.000000 0.000000
rhumerus -96.561996 8.094680 -163.163803
rradius 58.032600
rwrist -30.959600
rhand -57.366402 -45.347198
rfingers 14.250040
rthumb -4.091400 -105.287003
lclavicle 0.000000 0.000000
lhumerus -70.889198 -2.119560 181.714005
lradius 37.775200
lwrist -22.534599
lhand -21.424400 -45.117599
lfingers 14.250040
lthumb 30.595600 13.710900
rfemur -82.268204 4.174140 30.924000
rtibia 78.908798
rfoot -12.819180 -7.190740
rtoes -32.978802
lfemur 55.601002 10.621220 -36.969601
ltibia 0.000000
lfoot 13.530240 -2.389520
ltoes -34.301601
147
root 17.210760 31.956200 -32.361000 12.797080 17.431061 7.002920
lowerback -12.926620 -6.791300 -8.195380
upperback -2.695740 -8.609940 4.465960
thorax 5.396020 -4.376760 8.443600
lowerneck -38.629002 -11.730520 -27.530399
upperneck 35.212601 -13.883100 25.659599
head 19.435181 -5.612060 11.625920
rclavicle -0.000000 0.000000
rhumerus -96.524597 8.306940 -163.167206
rradius 57.338600
rwrist -29.038000
rhand -55.784000 -45.206799
rfingers 14.250040
rthumb -2.563180 -105.158600
lclavicle -0.000000 0.000000
lhumerus -72.065002 0.817598 180.247192
lradius 36.190399
lwrist -22.113199
lhand -21.093599 -45.469002
lfingers 14.250040
lthumb 30.914000 13.335020
rfemur -81.165604 3.518780 32.060799
rtibia 79.237396
rfoot -13.889340 -6.442500
rtoes -33.682800
lfemur 55.853802 10.654760 -35.910000
ltibia 0.000000
lfoot 17.493059 -1.033202
ltoes -33.508999
148
root 17.157961 32.028198 -32.052399 12.809020 18.019979 5.737680
lowerback -12.626520 -6.716920 -6.884900
upperback -2.698320 -8.617220 4.824060
thorax 5.159100 -4.366760 8.096580
lowerneck -39.059399 -11.906320 -27.568001
upperneck 34.828999 -14.073280 25.867599
head 19.419800 -5.665540 11.665720
rclavicle -0.000000 -0.000000
rhumerus -96.399200 8.274280 -162.822800
rradius 57.205002
rwrist -27.534800
rhand -55.179199 -45.819599
rfingers 14.250040
rthumb -1.979026 -105.774597
lclavicle -0.000000 -0.000000
lhumerus -72.661201 2.471900 179.251999
lradius 34.970600
lwrist -21.835600
lhand -20.664000 -45.150002
lfingers 14.250040
lthumb 31.327801 13.621800
rfemur -80.013397 3.217780 33.926800
rtibia 79.306999
rfoot -14.628600 -5.899740
rtoes -33.412601
lfemur 51.683998 11.132520 -33.845600
ltibia 8.450000
lfoot 18.207279 -0.312488
ltoes -30.131399
149
root 17.098160 32.109001 -31.746799 12.995300 18.240900 4.700900
lowerback -12.806340 -6.589960 -5.874680
upperback -2.495860 -8.518500 5.075660
thorax 5.405740 -4.317660 7.784060
lowerneck -39.939800 -12.097620 -27.463200
upperneck 34.275002 -14.262360 26.125200
head 19.423820 -5.687920 11.692280
rclavicle 0.000000 -0.000000
rhumerus -95.489799 7.261260 -161.630798
rradius 57.191200
rwrist -25.139200
rhand -52.894402 -43.853802
rfingers 14.250040
rthumb 0.227740 -103.813202
lclavicle 0.000000 -0.000000
lhumerus -73.281799 4.319500 177.872604
lradius 34.738998
lwrist -23.261000
lhand -15.679240 -41.680599
lfingers 14.250040
lthumb 36.126202 16.681780
rfemur -78.886803 3.280340 35.452599
rtibia 79.011398
rfoot -15.277100 -5.409900
rtoes -31.031200
lfemur 43.463200 12.325120 -31.945601
ltibia 24.548000
lfoot 15.726440 -0.812616
ltoes -29.099800
150
root 17.034700 32.202000 -31.452801 13.448100 18.512461 3.963460
lowerback -12.836340 -6.690360 -5.303060
upperback -2.617080 -8.694640 5.281260
thorax 5.287100 -4.397660 7.661680
lowerneck -40.251202 -12.031500 -27.320200
upperneck 34.062401 -14.213320 26.392599
head 19.405621 -5.616700 11.767380
rclavicle 0.000000 -0.000000
rhumerus -94.698601 7.592300 -161.779602
rradius 56.926601
rwrist -25.637199
rhand -52.880600 -35.317402
rfingers 14.250040
rthumb 0.240890 -95.276802
lclavicle 0.000000 -0.000000
lhumerus -74.230797 6.712340 176.171997
lradius 34.204800
lwrist -25.517200
lhand -8.963700 -37.833599
lfingers 14.250040
lthumb 42.582401 19.867359
rfemur -77.845200 3.030400 36.759800
rtibia 78.394203
rfoot -16.405399 -4.890100
rtoes -29.413601
lfemur 37.840801 13.105480 -30.681999
ltibia 34.991600
lfoot 15.207960 -0.328754
ltoes -26.904600
151
root 16.973160 32.287399 -31.169600 13.709400 18.823999 3.067320
lowerback -12.373600 -6.714380 -4.607200
upperback -2.842160 -8.782900 5.536200
thorax 4.772580 -4.427020 7.561520
lowerneck -40.224800 -12.021240 -27.077000
upperneck 34.168999 -14.282400 26.369801
head 19.438200 -5.635520 11.710020
rclavicle 0.000000 0.000000
rhumerus -94.151802 7.863640 -161.873199
rradius 56.943001
rwrist -26.048599
rhand -56.037998 -45.598202
rfingers 14.250040
rthumb -2.808580 -105.548401
lclavicle 0.000000 0.000000
lhumerus -74.931602 7.604660 175.233002
lradius 33.370998
lwrist -26.574200
lhand -6.049300 -37.095402
lfingers 14.250040
lthumb 45.380600 20.276600
rfemur -76.559196 2.737520 38.279800
rtibia 77.560204
rfoot -17.500900 -4.329060
rtoes -28.838800
lfemur 33.166000 13.722380 -29.325800
ltibia 43.771801
lfoot 15.094060 0.820624
ltoes -22.315201
152
root 16.914280 32.357601 -30.890800 13.876980 19.091520 2.270560
lowerback -11.934780 -6.511360 -3.915780
upperback -2.973540 -8.563860 5.804100
thorax 4.344200 -4.306900 7.501020
lowerneck -40.410801 -12.364200 -27.325001
upperneck 33.974800 -14.683940 26.541000
head 19.483700 -5.813620 11.744520
rclavicle 0.000000 -0.000000
rhumerus -94.505203 10.099080 -163.945007
rradius 57.741402
rwrist -33.176201
rhand -63.099400 -41.237999
rfingers 14.250040
rthumb -9.627920 -101.088600
lclavicle 0.000000 -0.000000
lhumerus -75.553802 6.391000 175.672195
lradius 33.382000
lwrist -25.712000
lhand -5.890120 -38.103802
lfingers 14.250040
lthumb 45.533401 19.249420
rfemur -75.116600 2.922220 39.498199
rtibia 76.513397
rfoot -18.418100 -4.045840
rtoes -27.333401
lfemur 28.817200 14.214180 -28.191000
ltibia 51.661800
lfoot 16.613060 2.384680
ltoes -21.400200
153
root 16.852421 32.433601 -30.619600 14.089980 19.436180 1.683768
lowerback -11.626540 -6.391640 -3.577760
upperback -3.155580 -8.431380 6.172540
thorax 3.977540 -4.233240 7.728100
lowerneck -40.071201 -12.671000 -28.404600
upperneck 33.250999 -14.960360 27.421600
head 19.299040 -5.934940 12.191340
rclavicle -0.000000 0.000000
rhumerus -94.102997 9.818180 -162.710205
rradius 58.213799
rwrist -31.165600
rhand -60.571800 -43.985199
rfingers 14.250040
rthumb -7.187180 -103.884201
lclavicle -0.000000 0.000000
lhumerus -76.220200 5.391060 176.331604
lradius 33.395199
lwrist -25.667999
lhand -7.487280 -38.969398
lfingers 14.250040
lthumb 44.000198 18.568119
rfemur -73.614403 3.089380 40.453400
rtibia 75.318199
rfoot -19.273800 -3.816200
rtoes -25.461399
lfemur 24.504999 14.445100 -27.470400
ltibia 58.997601
lfoot 19.177000 4.028040
ltoes -19.549379
154
root 16.802900 32.521000 -30.350401 14.044920 19.525860 1.186642
lowerback -11.199940 -6.329160 -3.369080
upperback -3.179340 -8.367920 6.481480
thorax 3.718560 -4.198380 7.961060
lowerneck -39.563000 -12.720520 -28.885000
upperneck 32.719601 -14.977820 27.759600
head 19.061399 -5.958820 12.382440
rclavicle 0.000000 -0.000000
rhumerus -93.745399 10.376840 -162.226196
rradius 58.755001
rwrist -31.729200
rhand -60.752998 -46.698799
rfingers 14.250040
rthumb -7.362020 -106.594803
lclavicle 0.000000 -0.000000
lhumerus -77.175598 5.070800 176.477600
lradius 34.163200
lwrist -27.007999
lhand -10.644120 -39.883202
lfingers 14.250040
lthumb 40.967800 17.995781
rfemur -71.864601 3.067740 41.361801
rtibia 74.128403
rfoot -19.895201 -3.334460
rtoes -24.537201
lfemur 20.743000 14.703420 -26.996401
ltibia 65.757797
lfoot 20.923000 6.095660
ltoes -14.711820
155
root 16.757441 32.610199 -30.084999 14.326460 19.574739 0.666734
lowerback -11.153740 -6.215780 -3.006160
upperback -3.178460 -8.240680 6.670960
thorax 3.671840 -4.133260 7.966720
lowerneck -39.525398 -12.776400 -28.863600
upperneck 32.423401 -15.084620 27.968399
head 18.978960 -5.987340 12.430580
rclavicle -0.000000 0.000000
rhumerus -93.433403 11.571260 -162.741592
rradius 59.640800
rwrist -33.873199
rhand -60.961800 -49.787601
rfingers 14.250040
rthumb -7.563700 -109.680000
lclavicle -0.000000 0.000000
lhumerus -78.224403 2.835020 177.480804
lradius 35.741402
lwrist -25.648001
lhand -11.060620 -39.617401
lfingers 14.250040
lthumb 40.567600 18.304220
rfemur -70.514999 3.041920 42.276001
rtibia 72.942802
rfoot -20.250999 -2.822740
rtoes -23.872601
lfemur 16.821260 15.134820 -26.554600
ltibia 71.971397
lfoot 20.380600 8.637660
ltoes -17.930380
156
root 16.705681 32.703602 -29.827400 14.867200 19.774300 0.063626
lowerback -11.196480 -5.937100 -2.485180
upperback -3.339940 -7.896640 6.840340
thorax 3.478040 -3.955040 7.880200
lowerneck -39.649200 -13.081160 -29.080000
upperneck 32.261200 -15.487560 28.298201
head 19.036341 -6.150320 12.520040
rclavicle 0.000000 -0.000000
rhumerus -93.007401 11.907220 -162.751801
rradius 60.442600
rwrist -34.530800
rhand -59.268200 -53.250401
rfingers 14.250040
rthumb -5.928140 -113.168800
lclavicle 0.000000 -0.000000
lhumerus -79.052597 -2.253820 180.279007
lradius 36.708599
lwrist -20.202400
lhand -8.415080 -38.411598
lfingers 14.250040
lthumb 43.109200 19.229500
rfemur -69.354202 3.072620 43.259800
rtibia 71.744797
rfoot -20.756201 -2.445860
rtoes -23.875000
lfemur 12.672940 15.481360 -26.110399
ltibia 77.759201
lfoot 17.646999 11.260800
ltoes -31.385799
